<svg width="36" height="38" viewBox="0 0 36 38" fill="none" xmlns="http://www.w3.org/2000/svg">
<g filter="url(#filter0_dd_1917_230181)">
<path d="M17.9994 33.9408C9.17704 33.9408 2.02344 26.7888 2.02344 17.9696C2.02344 9.1504 9.17544 2 17.9994 2C26.8218 2 33.9754 9.1504 33.9754 17.9696C33.9754 26.7904 26.8234 33.9408 17.9994 33.9408V33.9408ZM17.9994 4.9952C16.2951 4.99478 14.6073 5.33009 13.0325 5.98199C11.4577 6.63389 10.0268 7.5896 8.82139 8.79455C7.61599 9.99951 6.65974 11.4301 6.00726 13.0046C5.35478 14.5792 5.01885 16.2668 5.01864 17.9712C5.01864 21.3216 6.30184 24.3664 8.38824 26.6688C10.2682 25.7584 9.57704 26.5152 12.0362 25.504C14.5546 24.4688 15.1498 24.1088 15.1498 24.1088L15.1738 21.7248C15.1738 21.7248 14.2314 21.0096 13.9386 18.7648C13.3482 18.9344 13.1546 18.0768 13.1194 17.5328C13.0874 17.0048 12.777 15.3616 13.497 15.5104C13.3498 14.4112 13.2442 13.4208 13.297 12.896C13.4762 11.056 15.265 9.1296 18.0186 8.9904C21.2586 9.1296 22.5418 11.0544 22.7226 12.8944C22.7738 13.4208 22.6586 14.4112 22.5114 15.5072C23.2314 15.3616 22.9178 17.0032 22.8826 17.5296C22.8506 18.0736 22.6522 18.928 22.0634 18.76C21.769 21.0032 20.8266 21.712 20.8266 21.712L20.849 24.0848C20.849 24.0848 21.4458 24.4224 23.9626 25.4576C26.4218 26.4688 25.7306 25.7568 27.6106 26.6688C29.7782 24.2901 30.9793 21.1877 30.9786 17.9696C30.9786 16.2653 30.6429 14.5777 29.9906 13.0032C29.3383 11.4286 28.3822 9.99803 27.1769 8.79305C25.9717 7.58808 24.5408 6.63234 22.9661 5.98042C21.3914 5.3285 19.7037 4.99318 17.9994 4.9936V4.9952Z" fill="#40DD84"/>
</g>
<defs>
<filter id="filter0_dd_1917_230181" x="0.0698831" y="0.604604" width="35.8583" height="36.6848" filterUnits="userSpaceOnUse" color-interpolation-filters="sRGB">
<feFlood flood-opacity="0" result="BackgroundImageFix"/>
<feColorMatrix in="SourceAlpha" type="matrix" values="0 0 0 0 0 0 0 0 0 0 0 0 0 0 0 0 0 0 127 0" result="hardAlpha"/>
<feOffset/>
<feGaussianBlur stdDeviation="0.697698"/>
<feComposite in2="hardAlpha" operator="out"/>
<feColorMatrix type="matrix" values="0 0 0 0 0.25098 0 0 0 0 0.866667 0 0 0 0 0.517647 0 0 0 1 0"/>
<feBlend mode="normal" in2="BackgroundImageFix" result="effect1_dropShadow_1917_230181"/>
<feColorMatrix in="SourceAlpha" type="matrix" values="0 0 0 0 0 0 0 0 0 0 0 0 0 0 0 0 0 0 127 0" result="hardAlpha"/>
<feOffset dy="1.3954"/>
<feGaussianBlur stdDeviation="0.976777"/>
<feComposite in2="hardAlpha" operator="out"/>
<feColorMatrix type="matrix" values="0 0 0 0 0.25098 0 0 0 0 0.866667 0 0 0 0 0.517647 0 0 0 0.3 0"/>
<feBlend mode="normal" in2="effect1_dropShadow_1917_230181" result="effect2_dropShadow_1917_230181"/>
<feBlend mode="normal" in="SourceGraphic" in2="effect2_dropShadow_1917_230181" result="shape"/>
</filter>
</defs>
</svg>
